<?xml version="1.0" encoding="utf-8"?>
<!-- Generator: Adobe Illustrator 15.0.2, SVG Export Plug-In . SVG Version: 6.00 Build 0)  -->
<!DOCTYPE svg PUBLIC "-//W3C//DTD SVG 1.1//EN" "http://www.w3.org/Graphics/SVG/1.1/DTD/svg11.dtd">
<svg version="1.1" xmlns="http://www.w3.org/2000/svg" xmlns:xlink="http://www.w3.org/1999/xlink" x="0px" y="0px"
	 viewBox="0 0 702.939 377.365" enable-background="new 0 0 702.939 377.365"
	 xml:space="preserve">
<g id="Layer_3">
</g>
<g id="Layer_4">
	<g>
		<g>
			<path fill="#E966A6" d="M193.164,154.688c0.506-0.03,7.917-10.632,5.397-10.073c-37.421,8.272-73.211-45.821-43.291-68.186
				c23.106-14.336,41.514,13.052,46.708,48.395c5.454,37.099,2.877,77.154,4.602,78.438c1.725,1.282,5.131,1.805,6.133,1.657
				c4.514-0.664,10.706-2.083,14.769-16.254c12.299-41.756,49.835-115.646,87.472-147.042c10.286-8.427,21.188-14.383,31.599-18.473
				c7.05-2.574,11.545-6.819,11.524-12.194c0.2-3.871-1.873-10.991-2.121-10.956c-16.706,6.554-34.791,17.662-46.388,29.355
				c-38.935,38.243-73.37,117.568-86.449,160.975c-1.378,4.558-3.634,4.889-5.389,5.146c-0.54-0.177,6.945-23.509-0.459-73.891
				c-7.223-49.131-43.061-66.701-65.845-47.855C122.28,97.837,151.785,157.028,193.164,154.688z"/>
			<path fill="#E966A6" d="M566.132,156.518c-2.159,25.691-15.76,38.647-25.906,38.647c-6.477,0-10.364-6.047-12.091-13.818
				l2.374-1.512c15.761-11.659,30.658-30.873,31.522-44.043c0.432-8.203-3.023-14.033-12.738-14.033
				c-14.465,0-31.091,21.374-33.682,44.691c-0.611,5.941-0.027,12.608,2.125,18.461c-0.062,0.05-0.111,0.085-0.175,0.136
				c-3.63,2.941-7.556,5.38-10.579,7.971c0-47.929,3.238-60.823,5.397-65.356c0.864-1.944-1.728-3.023-3.023-3.023
				c-3.021,0-8.636,0.647-9.715,3.886l-0.433,2.159c-1.512-0.862-3.453-1.509-6.044-1.509c-12.091,0-28.5,12.738-31.953,37.35
				c-0.506,3.541-0.521,6.926-0.135,10.093c-3.972,10.226-8.684,16.389-13.244,16.389c-7.126,0-6.909-11.876-6.909-20.943
				c0-12.953,3.238-34.759,5.183-43.827c0.43-3.023-14.035-3.67-14.25-0.647c0,0.647-0.217,1.294-0.217,2.159
				c-1.08-0.217-2.374-0.432-3.886-0.432c-11.658,0-29.361,15.544-32.385,39.077c-0.38,2.518-0.546,4.913-0.523,7.179
				c-3.866,11.859-8.711,18.337-15.522,18.329c-10.579-0.015-13.797-18.154-13.763-44.061c0.008-8.099,1.175-23.832,1.66-33.021
				c5.992-1.091,12.436-2.306,20.186-4.764c44.936-14.253,97.583-44.358,126.582-31.791c16.733,7.368,15.409,25.156,8.203,36.272
				c-0.16,0.215-0.491,5.357,3.502,3.017c1.277-0.852,4.961-5.338,6.402-8.547c5.935-12.837,2.796-33.22-10.748-39.07
				c-30.753-13.436-90.51,20.674-136.961,35.817c-6.35,2.07-12.455,3.149-16.896,3.937c-0.084-0.544,0.061,0.475,0.077-0.068
				c-0.007,0.002-0.013,0.002-0.017,0.004v-2.157c2.62-23.098,6.308-37.128,6.093-38.855c0.004-2.159-13.599-2.825-14.033-0.667
				c-0.432,1.08-1.754,22.236-3.074,42.747c-26.56,4.499-38.432,1.246-41.876-6.099c-3.017-6.696-0.63-16.193,4.775-21.152
				c1.729-1.51-2.584-5.617-7.341,1.071c-4.326,6.038-6.065,15.538-3.913,20.505c4.305,10.153,17.469,15.353,48.134,10.638
				c-0.883,15.112-1.547,28.715-1.554,33.032c-0.034,29.579,9.226,48.157,23.476,48.174c7.946,0.011,13.261-6.104,17.33-16.523
				c2.427,11.667,10.834,18.436,21.393,18.436c6.691,0,11.873-6.909,15.111-16.191c1.512,7.124,9.285,13.385,15.114,13.385
				c5.8,0,10.968-5.894,15.22-15.302c3.158,9.761,10.729,16.24,20.181,16.24c5.829,0,10.363-4.103,13.602-11.012
				c-0.217,6.262-0.217,5.286-0.217,12.195v4.048c-15.759,12.953-28.282,30.175-30.873,47.448
				c-2.591,17.92,9.067,25.476,17.056,26.771c9.932,1.943,24.396-23.478,24.829-80.257c3.238-2.591,7.179-5.869,11.01-9.04
				c0.394-0.327,0.759-0.645,1.119-0.963c3.548,7.042,9.835,12.247,19.817,12.247c13.386,0,27.635-17.486,30.011-43.827
				C569.156,152.416,566.564,152.633,566.132,156.518z M430.56,170.768c-1.511,13.6-6.477,24.829-12.521,24.829
				c-8.42,0-11.658-14.467-10.147-27.853c1.728-15.544,7.771-33.464,18.136-33.464c2.591,0,4.532,1.727,5.397,3.238
				C430.993,147.451,430.56,161.916,430.56,170.768z M484.098,275.121c-4.75-0.862-10.58-9.067-8.421-24.827
				c2.159-14.467,8.636-30.784,20.294-41.364C495.756,247.359,492.301,276.417,484.098,275.121z M496.619,170.194
				c-1.727,13.386-6.26,23.533-12.953,23.533c-9.067,0-11.659-13.603-10.147-27.635c2.159-18.135,7.342-32.167,17.703-32.167
				c3.456,0,6.694,3.021,6.909,4.317c0,0,0,0.215,0.217,0.215C497.698,145.798,497.051,156.809,496.619,170.194z M527.703,178.109
				c-0.432-3.456-0.432-7.126,0-10.579c2.376-21.159,11.874-40.158,19.215-40.158c3.023,0,4.317,3.456,3.888,8.635
				c-0.649,11.659-9.5,31.955-22.885,41.885C527.703,177.892,527.703,177.892,527.703,178.109z"/>
			<path fill="#E966A6" d="M273.833,108.948c0,3.238,5.18,5.612,6.909,5.612c2.374,0,7.341-6.691,7.341-9.498
				s-2.808-6.909-4.967-6.909C280.741,98.153,273.833,105.062,273.833,108.948z"/>
			<path fill="#E966A6" d="M199.434,235.401c7.917-0.268,20.701-0.919,31.801-1.712c18.538-1.324,47.491-8.652,72.12-16.124
				c11.764-3.567,22.404-8.357,30.709-10.312c3.023,7.988,12.523,12.955,19.647,14.899c18.567,4.748,28.932-15.114,6.259-19.864
				c-4.318-0.864-9.498-0.647-15.327,0.217c-2.808-11.228-1.729-27.852,0.864-45.123c3.886-25.693-2.593-32.602-9.5-32.602
				c-6.694,0-13.603,9.717-22.023,41.237c-1.08,3.67-1.944,0-1.944-1.944c0-8.203,4.103-31.521,4.535-35.838
				c0.432-2.591-14.25-3.238-14.25-0.647c0,1.505-0.584,20.876-1.071,38.747c-4.235,19.072-10.018,29.477-16.627,29.477
				c-7.124,0-6.909-11.874-6.909-20.941c0-12.955,3.453-34.761,5.614-43.613c0.215-2.159-14.035-3.021-14.465-0.647
				c-0.435,5.614-1.514,31.306-1.514,43.611c0,10.147,7.126,26.556,16.625,26.556c7.436,0,12.823-8.198,16.936-21.625
				c-0.188,7.483-0.316,13.572-0.316,16.229c0,1.944,4.965,4.103,7.988,4.103c3.887,0,4.317-5.183,4.317-13.386
				c0-3.023,0.432-7.988,1.729-12.523c8.418-29.362,15.327-43.827,19.862-43.827c2.591,0,2.159,4.533-1.512,28.282
				c-3.023,19.43-3.023,34.976,0,45.985c-12.034,2.663-33.88,11.516-57.874,17.328c-28.965,7.016-59.231,9.812-77.628,9.535
				c-0.881-0.015-1.657-0.031-2.378-0.053c-11.918-16.891-25.902-23.701-35.035-17.312c-11.494,8.039-0.54,25.432,29.973,23.64
				c0.059,0.127,0.12,0.244,0.177,0.373c0.116,0.005,0.219-0.011,0.335-0.004c0.16,0.009,0.318,0.011,0.479,0.019
				c5.214,12.884,8.115,31.599,10.105,56.065c3.069,42.211-17.844,78.479-46.011,68.278c-4.183-1.417-7.202-3.551-10.267-7.229
				c12.144-5.218,22.259-14.587,27.833-28.47c8.646-20.965-0.835-39.95-13.105-43.349c-10.318-2.833-22.866,4.531-28.444,18.696
				c-5.83,15.236-3.913,34.4,4.362,48.829c-8.545,1.715-18.051,0.361-26.157-3.729c-2.304-1.163,2.256,10.94,2.741,11.092
				c9.255,2.929,18.188,1.885,26.906-1.048c0.202,0.272,0.434,0.595,0.468,0.586c4.183,5.667,8.971,7.737,15.665,10.289
				c27.33,9.917,65.533-15.018,61.072-72.815C214.154,269.59,207.956,249.788,199.434,235.401z M358.245,205.312
				c13.6,2.591,7.124,15.112-1.944,12.091c-5.182-1.729-8.635-5.829-10.579-11.659C350.687,205.094,354.79,204.665,358.245,205.312z
				 M184.691,232.384c-28.109,1.334-23.897-11.539-21.295-13.08c7.518-4.452,16.529-0.453,24.123,12.922L184.691,232.384z
				 M140.905,348.851c-7.252-12.185-9.483-29.75-4.74-43.351c5.296-15.013,15.895-20.965,23.701-17.279
				c7.809,3.968,12.827,20.685,6.974,34.85C162.097,334.965,152.618,344.036,140.905,348.851z"/>
			<path fill="#E966A6" d="M237.549,329.122c0-2.809,0.403-7.773,1.608-12.308c7.843-29.362,14.277-44.042,18.502-44.042
				c2.412,0,2.211,4.533-1.409,28.282c-4.223,26.988,3.82,39.941,12.671,39.941c6.641,0,11.971-10.211,16.278-26.771
				c4.47,19.089,12.86,25.66,16.818,25.66c7.842,0,35.286-23.317,35.286-47.067v-2.373c2.473-0.471,5.062-1.331,7.693-2.554
				c-0.415,8.876-0.841,20.727-0.841,27.7c0,8.925,6.786,23.354,15.839,23.354c7.577,0,12.917-8.26,16.933-21.559
				c3.173,14.582,10.122,23.196,19.54,23.403c9.934,0.222,15.186-3.559,21.986-9.04c3.382,6.683,9.369,11.62,18.878,11.62
				c12.755,0,26.334-16.604,28.596-41.619c0.205-3.896-2.262-3.689-2.673,0c-2.06,24.397-15.017,36.701-24.688,36.701
				c-6.171,0-9.873-5.743-11.52-13.122l2.26-1.436c15.02-11.072,29.214-29.319,30.036-41.826c0.414-7.79-2.877-13.326-12.135-13.326
				c-13.781,0-29.625,20.299-32.094,42.441c-0.593,5.739-0.009,12.194,2.131,17.819c-8.853,5.935-11.732,7.292-19.648,7.119
				c-10.078-0.224-12.789-17.427-12.254-41.903c0.262-12.034,1.109-22.63,2.141-32.195c16.876-0.238,35.41-0.85,50.024-1.139
				c2.269-0.153,2.929-2.182-0.362-2.254l-49.121-2.513c2.943-21.772,6.728-34.953,6.558-36.591
				c0.071-3.262-12.898-2.937-13.356-0.906c-0.455,2.032-2.656,18.104-4.101,37.05c-7.603-0.371-8.043-0.835-9.276-0.864
				c-2.058-0.044-2.407,3.431-2.429,4.453c-0.071,3.261,0.77,2.778,3.238,2.833c2.263,0.051,0.504,0.342,7.915,0.098
				c-0.649,11.005-1.316,22.623-1.533,32.618c-0.129,5.891,0.169,11.297,0.81,16.213c-3.974,15.251-9.247,23.556-15.238,23.556
				c-6.789,0-6.584-10.438-6.584-18.411c0-11.394,3.293-30.568,5.346-38.354c0.207-1.897-13.368-2.659-13.779-0.569
				c-0.104,1.239-0.247,3.601-0.403,6.607c-2.918,1.518-5.707,2.571-8.279,3.139c-1.568-11.227-12.94-17.92-19.801-16.623
				c-5.294,1.294-9.019,4.965-7.645,11.441c1.371,4.967,7.645,8.853,15.682,9.284c0.196,1.295,0.196,2.374,0.196,3.453
				c0,22.023-18.622,41.023-22.151,41.023c-2.549,0-11.566-7.773-5.098-58.511c0.393-1.942-15.681-2.374-15.681-0.215
				c-0.498,12.313,0.144,22.427,1.465,30.677c-4.115,18.26-9.107,28.512-13.955,28.512c-5.629,0-6.032-9.717-2.011-35.408
				c3.824-25.69-2.412-32.6-8.846-32.6c-6.236,0-12.67,9.715-20.513,41.021c-1.006,3.886-1.811,0-1.811-1.944
				c0-7.987,3.936-29.713,4.543-34.033c0.198-2.374-14.214-3.31-14.214-0.719s-0.986,56.343-0.986,66.275
				c0,1.941,1.606,4.101,5.429,4.101S237.549,339.269,237.549,329.122z M426.637,310.554c2.262-21.158,11.317-40.158,18.311-40.158
				c2.877,0,4.11,3.455,3.704,8.636c-0.62,11.658-9.054,31.954-21.809,41.885c-0.206,0-0.206,0-0.206,0.217
				C426.224,317.678,426.224,314.007,426.637,310.554z M313.583,280.944c-0.588-4.318,0.588-6.262,3.724-7.126
				c3.529-0.647,6.47,5.829,7.646,14.034C318.483,287.42,314.172,284.397,313.583,280.944z"/>
			<path fill="#E966A6" d="M348.45,255.752c0,3.238,4.936,5.611,6.582,5.611c2.264,0,6.995-6.691,6.995-9.499
				c0-2.807-2.675-6.909-4.731-6.909C355.032,244.956,348.45,251.865,348.45,255.752z"/>
			<path fill="#E966A6" d="M610.479,335.329c-11.969-1.897-32.532,13.438-49.881,20.738c-5.578-1.916-16.548-9.999-20.821-14.225
				c-16.268-16.096-32.788-56.141-15.025-83.419c13.478-20.695,45.862-28.995,74.224-18.443c0.145-0.011,0.29-0.021,0.423-0.062
				c0.269-0.077,0.466-0.24,0.644-0.428c6.033-27.589-40.757-18.031-54.564-10.6c-46.897,25.244-48.774,106.445-0.195,134.532
				c-24.145,7.758-58.793,8.89-88.923,6.915c-75.576-4.953-166.544-47.046-225.385-2.073v1.038
				c9.907,9.411,21.959-0.726,31.607-3.627c55.325-16.646,116.713,7.088,179.271,10.881c41.183,2.496,86.671-0.725,109.906-10.638
				c0.31,0.126,0.641,0.251,0.963,0.375c3.89,1.617,15.891,5.285,19.586,5.732c22.144,2.485,45.439-8.478,48.488-21.918
				C622.84,341.08,618.168,336.646,610.479,335.329z M618.008,352.021c-1.546,6.82-21.405,11.379-42.541,8.91
				c-3.459-0.36-7.039-1.173-10.317-2.338c0.211,0.046,0.211,0.046,0.257-0.154c14.754-5.945,33.538-15.88,45.045-13.906
				C615.594,345.279,618.645,349.217,618.008,352.021z"/>
			<path fill="#E966A6" d="M587.086,307.969c0.217-2.178,0.434-4.155,0.434-6.331c0-21.964-15.113-37.396-29.578-34.231
				c-12.953,3.166-20.727,18.599-16.841,30.272c-1.944,3.959-3.238,8.311-3.454,12.27c-1.514,15.827,9.715,28.095,21.589,28.095
				c10.579,0,24.182-12.268,27.205-26.712c10.579-3.759,15.327-11.475,16.406-14.443c1.295-3.562-1.509-3.955-2.806-0.395
				C599.179,299.264,595.292,304.802,587.086,307.969z M560.748,333.295c-7.556,0-11.658-9.101-10.362-23.15l0.431-4.354
				c4.534,4.354,10.579,7.322,19.214,7.322c2.377,0,4.318-0.198,6.477-0.396C573.918,324.787,567.224,333.295,560.748,333.295z
				 M576.941,309.552c-1.514,0.396-3.238,0.593-4.967,0.593c-9.715,0.595-16.406-3.167-20.294-8.705
				c2.158-11.676,6.477-16.621,11.227-19.984c2.376-1.583,1.943-3.164-1.297-1.781c-4.748,1.978-14.248,7.521-17.918,13.651
				c-1.727-8.903,4.965-19.191,14.68-20.577c12.523-1.978,19,13.653,19,30.869C577.372,305.792,577.157,307.573,576.941,309.552z"/>
		</g>
		<g>
			<path fill="#9BD5C4" d="M249.255,63.426c-1.939,9.779-4.445,16.247-8.002,16.247c-3.637,0-7.436-4.85-5.74-14.954
				c1.537-8.811,1.051-10.589,0.083-10.589c-1.698,0-4.526,5.497-7.598,16.57c-0.566,1.618-0.729,3.557-0.729,4.527
				c0,3.153-1.132,4.688-2.587,4.688c-1.131,0-2.02-0.727-2.02-1.535v-3.153c-2.183,3.153-4.608,4.93-7.195,4.93
				c-5.252,0-8.649-6.952-8.649-17.944c0-3.879,0.163-8.326,0.325-12.528c-2.183,0.242-4.204,0.242-6.063,0.242
				c-0.97,0-2.505-0.565-2.505-1.858c0-0.405,2.829-1.133,3.639-1.133c1.776,0.083,3.476,0.083,5.091,0
				c0.405-7.354,0.89-13.74,1.051-14.549c0.242-0.727,5.335-0.565,5.415,0.242c0,0.729-1.375,5.659-2.263,14.227
				c4.607-0.242,8.406-0.889,11.72-2.021c1.537-17.863,8.407-35.162,15.844-35.162c9.861,0,8.89,17.863-2.425,29.908
				c-2.507,2.587-5.739,4.607-9.215,6.144c-0.323,3.395-0.405,6.628-0.405,9.538c0,4.284-0.081,8.972-0.081,11.801
				c0,0.242,0.081,0.565,0.081,0.89c0.81-1.698,1.536-3.638,2.182-5.659l0.244-0.485c2.425-7.113,4.688-9.457,6.708-9.457
				c2.587,0,5.739,2.668,4.123,12.205c-1.616,9.619-0.89,13.257,1.374,13.257s4.608-5.093,6.386-14.308
				C248.367,62.213,249.498,61.97,249.255,63.426z M222.663,73.044c0.081-5.82,0.081-13.742,0.081-17.459
				c0-2.91,0.161-5.9,0.324-8.891c-3.88,1.375-7.922,2.263-11.882,2.748c-0.244,3.637-0.486,7.759-0.486,12.367
				c0,9.78,1.212,16.49,5.255,16.49C218.055,78.299,220.48,76.438,222.663,73.044z M227.594,43.865
				c3.232-1.455,5.9-3.476,8.324-6.143c10.185-11.155,10.024-25.786,3.153-25.786C232.928,11.936,228.967,28.75,227.594,43.865z"/>
			<path fill="#9BD5C4" d="M267.438,63.911c-0.889,9.86-6.224,16.408-11.235,16.408c-7.194,0-9.295-7.193-8.729-12.69
				c0.971-8.729,7.193-16.731,12.609-16.731c3.637,0,4.93,2.182,4.769,5.254c-0.324,4.931-5.9,12.125-11.801,16.491l-0.89,0.564
				c0.647,2.911,2.102,5.175,4.527,5.175c3.798,0,8.891-4.851,9.698-14.469C266.549,62.455,267.521,62.374,267.438,63.911z
				 M252,71.993c0-0.08,0-0.08,0.08-0.08c5.012-3.718,8.326-11.316,8.568-15.682c0.163-1.938-0.324-3.232-1.454-3.232
				c-2.748,0-6.306,7.112-7.194,15.034C251.838,69.326,251.838,70.7,252,71.993z"/>
		</g>
		<g>
			<path fill="#9BD5C4" d="M693.868,127.317c-7.434,2.909-12.249,9.892-18.562,15.375c-2.665,2.315-8.439,7.325-6.896,7.916
				c1.056,0.371,6.781-3.919,15.32-7.146c3.607-1.365,6.974-2.487,8.998-5.327c1.146-1.612,3.466-6.735,3.242-8.988
				C695.826,127.686,694.776,126.964,693.868,127.317z"/>
			<g>
				<path fill="#9BD5C4" d="M689.375,102.09c-7.046,7.017-12.795,15.771-18.154,23.72c-5.038,7.764-11.64,15.81-15.864,23.961
					c-0.949,1.83-2.085,3.446-2.907,5.306c-0.827,1.857-6.146,10.883-4.337,10.833c1.693,0.111,6.681-10.993,8.61-14.129
					c6.451-10.482,13.901-19.996,22.088-29.052c3.302-2.544,5.927-5.621,8.724-8.7c4.744-5.225,11.588-8.957,15.049-15.437
					c1.171-2.186-0.723-5.458-3.082-5.481C695.993,93.077,691.978,99.494,689.375,102.09z"/>
				<path fill="#9BD5C4" d="M699.277,108.114c-0.506-0.362-1.694-0.071-2.391,0.419c-1.963,1.388-3.348,3.859-5.203,5.754
					c-5.764,5.886-13.61,12.597-19.741,19.703c-5.606,6.495-9.768,12.666-11.952,15.75c-1.619,2.186-7.533,11.377-5.525,11.489
					c2.021,0.334,12.468-12.951,17.374-17.884c6.559-6.592,14.314-15.463,22.082-20.064c1.853-1.097,3.742-3.437,3.657-5.477
					C698.09,116.764,702.382,110.36,699.277,108.114z"/>
				<path fill="#9BD5C4" d="M691.489,159.688c-2.673-0.508-5.386,0.75-7.246,1.448c-4.954,1.866-8.247,3.105-13.501,5.212
					c-1.223,0.492-3.995,1.938-5.532,2.812c-1.832,1.043-12.398,6.67-11.913,8.086c0.304,0.878,5.614-3.057,10.952-4.721
					c2.587-0.804,5.081-1.618,6.736-2.044c0.792-0.204,5.86-2.156,7.802-2.619l4.466-1.253c3.095-0.953,5.891-1.536,8.369-2.986
					C693.309,162.635,694.165,160.199,691.489,159.688z"/>
			</g>
		</g>
		<path fill="#9BD5C4" d="M687.195,100.333c3.344-4.255,7.754-7.299,11.393-11.226c2.521-2.72,2.229-8.29-1.812-10.119
			c-0.449-0.098-0.762-0.043-0.806-0.042c-1.729,0.431-3.065,1.234-4.396,2.004c-4.037,2.333-8.298,7.604-11.674,11.506
			c-3.573,4.129-6.768,9.17-9.151,13.476c-4.308,7.782-7.685,15.712-11.916,23.392c-2.066,3.748-4.472,8.133-6.553,12.007
			c-1.956,3.643-3.527,6.962-5.532,10.862c-3.643,7.083-9.782,20.307-11.06,21.132c-2.039,1.318-6.178,5.044-13.328,7.338
			c0.002,0.003-8.672,1.953-8.67,1.957c-3.541,0.843-7.394,1.254-8.462,1.596c-0.28,0.129-0.806,0.25-0.804,0.265
			c-1.279,0.331-1.748,0.423-2.931,0.826c-6.487,2.207-12.086,9.527-14.007,14.993c-1.592,4.538-0.664,10.019-3.055,13.975
			c-7.067,11.678-25.806,33.492-25.578,34.084c0.1,0.165,0.401,0.786,1.944-0.257c1.217-0.884,5.125-5.016,7.674-7.908
			c3.529-3.999,7.179-8.61,10.318-12.642c2.269-2.915,4.954-6.819,8.771-8.77c2.892-1.482,8.16-1.312,10.83-0.942
			c5.9,0.817,12.944,6.299,17.916,5.403c1.949-0.351,4.125-1.468,6.288-1.594c2.476-0.142,4.894,0.419,7.316,1.039
			c0,0.009,0.002,0.017,0,0.023c0.868,0.392,1.743,0.755,2.654,1.028c0.484,0.312,0.978,0.611,1.511,0.862
			c2.488,1.177,7.675,2.136,7.437,6.614c-4.771,5.94-9.589,14.418-12.593,20.924c-2.192,4.759-4.679,10.088-5.292,14.598
			c-0.706,5.183,1.981,8.325,5.895,5.064c4.645-3.871,7.366-10.997,9.016-17.83c1.021-4.233,3.982-11.469,5.009-11.336
			c0.775,0.308-1.375,8.511-2.694,12.312c-0.653,1.857-1.397,4.143-2.187,6.051c-1.576,3.815-3.775,8.159-5.072,12.495
			c-0.844,2.819,1.132,10.006,4.628,9.418c1.767-0.297,3.36-8.709,4.229-11.516c0.468-1.52,0.925-3.131,1.287-4.514
			c0.698-2.68,1.651-5.673,2.256-9.522c0.989-4.87,1.31-11.061,2.25-16.306c0.162-0.886,0.919-4.714,1.976-4.49
			c0.733,0.158,0.657,1.861,0.28,4.927c-0.386,3.153-1.048,8.062-1.845,12.211c-0.843,4.343-1.255,8.096-2.507,11.981
			c-1.381,4.273-2.644,11.49-3.006,14.846c-0.998,9.167,11.291,4.848,12.364-1.53c1.255-7.472,0.911-14.604,1.852-21.913
			c0.592-4.619-0.264-10.01-0.729-14.712c-0.253-2.582-0.378-5.306,0.475-5.521c1.943-0.495,1.816,9.964,2.226,16.302
			c0.298,4.572-0.854,9.597-0.86,14.471c-0.004,4.315,0.789,8.393,1.109,11.941c0.276,3.046,1.854,12.036,6.314,7.737
			c1.187-1.151,2.802-5.587,3.102-7.584c0.126-0.872,0.183-2.076,0.141-3.093c-0.468-11.467-6.487-32.604-5.72-33.02
			c2.136-1.11,5.159,13.36,6.999,20.939c0.94,3.884,1.164,12.304,4.617,14.76c2.299,1.632,4.643,1.832,5.197,1.83
			c0.915,0,3.561-0.959,4.362-3.228c0.392-1.115,0.075-5.549,1.269-5.052c1.168,0.483,1.113,2.509,2.947,1.965
			c1.607-0.47,1.708-5.933,1.273-7.439c-1.758-6.129-5.793-12.045-9.531-16.731c-0.55-0.686-3.259-3.27-2.525-4.219
			c0.66-0.85,5.696,3.654,6.175,4.08c2.005,1.798,4.13,4.469,5.192,6.47c0.82,1.543,1.215,4.32,2.807,4.221
			c1.992-0.131,1.914-6.818,1.417-8.846c-0.78-3.138-3.218-7.984-5.048-10.268c-2.065-2.574-0.244-3.027,2.108-1.404
			c1.05,0.728,3.333,2.684,4.073,0.711c0.438-1.175-1.159-3.864-1.68-5.201c-3.728-9.567-3.654-21.454-8.113-29.934
			c-0.934-1.778-2.376-3.868-3.915-5.567c-1.667-1.838-3.632-3.307-5.467-4.439c-4.267-2.634-9.812-4.521-13.406-5.247
			c-0.82-0.164-2.969-0.646-3.449-1.07c-1.176-1.042,3.862-0.492,3.89-0.488c0.984,0.167,2.085,0.288,4.105,0.491
			c3.822,0.383,8.065,2.215,11.234,2.121c1.659-0.051,4.004-2.282,2.958-4.351c-0.327-0.648-4.539-1.119-5.899-1.273
			c-5.354-0.599-10.347,0.423-15.312,0.264c-3.152-0.104-6.989-0.736-8.429-1.135c-0.762-0.209-1.379-0.839-0.14-0.983
			c0.422-0.026,2.929,0.366,6.205,0.398c5.589,0.059,13.548-0.64,17.96-0.369c3.993,0.247,9.386-1.363,9.137-5.188
			c-0.181-2.768-5.213-1.646-7.725-1.414c-3.348,0.308-6.143-0.429-9.131,0.41c-2.744,0.77-5.409,1.767-8.715,2.52
			c-2.199,0.499-4.948,1.349-6.605,1.396c-1.101,0.03-2.391,0.228-2.771-0.484c-0.384-0.713,3.382-1.331,3.287-1.31
			c2.844-0.654,6.717-1.458,10.155-2.615c2.187-0.736,4.31-1.441,8.732-1.851c4.854-0.448,10.044-0.684,14.326-2.971
			c2.194-1.172,9.191-8.643,1.554-6.602c-1.881,0.505-3.635,1.075-4.995,1.526l-4.638,1.18c-0.924,0.326-1.639,0.566-1.476,0.497
			c-3.791,1.636-6.531,2.184-10.815,3.375c-4.691,1.302-8.467,5.12-12.654,5.184c-3.824,0.055-1.221-2.064,0.567-3.514
			c6.959-5.627,12.953-8.408,23.02-12.707c5.505-2.355,10.342-5.003,15.216-5.932c1.503-0.287,3.076-0.296,3.231-1.541
			c0.338-2.604-2.799-3.716-5.023-3.133c-5.565,1.462-12.904,5.892-17.56,7.827c-1.794,0.745-4.912,2.581-7.086,3.749
			c-6.453,3.473-13.661,9.727-18.922,13.99c-1.497,1.213-2.547,2.266-4.235,3.571c0.027-0.02-3.348,2.212-4.202,1.821
			c-0.957-0.44,2.767-3.158,3.473-3.686c5.636-4.178,11.269-9.661,17.016-13.507c7.408-4.955,14.994-8.849,24.045-12.755
			c1.996-0.862,4.097-1.791,6.464-2.801c1.699-0.726,5.357-1.875,5.34-3.93c-0.008-1.519-3.057-2.983-4.349-2.674
			c-5.21,1.246-12.778,4.947-17.853,7.426c-3.172,1.551-5.983,4.185-8.857,6.31c-2.502,1.85-5.07,3.626-7.453,5.469
			c-3.457,2.676-8.926,7.251-10.425,6.57c-1.345-0.747,7.714-20.025,18.188-36.625C670.929,121.666,673.971,117.153,687.195,100.333
			z M595.956,207.226c-1.223,1.895-3.959,3.253-4.305,2.818c-0.542-0.682-0.403-2.83,0.817-4.725
			c1.226-1.894,1.681-2.638,2.536-2.086C595.861,203.788,597.176,205.332,595.956,207.226z M636.632,176.547
			c-1.51,1.119-4.623,5.189-5.03,6.452c-0.402,1.264-1.971,1.768-2.18,1.325c-1.394-2.981,5.439-7.338,6.803-8.318
			C636.687,175.675,637.887,175.615,636.632,176.547z"/>
		<g>
			<g>
				<path fill="#9BD5C4" d="M3.646,74.684c3.416-1.2,9.47,3.735,12.878,5.406c9.216,4.513,17.744,11.152,25.622,17.137
					c7.506,5.909,16.631,11.574,23.468,18.133c1.536,1.473,3.183,2.673,4.606,4.217c1.423,1.541,9.623,8.59,7.839,9.142
					c-1.62,0.672-10.184-8.519-13.108-10.94c-9.793-8.097-20.235-14.915-31.246-21.038c-4.069-1.389-7.657-3.521-11.414-5.6
					c-6.373-3.528-14.299-4.896-19.837-10.075C0.588,79.318,1.351,75.491,3.646,74.684z"/>
				<path fill="#9BD5C4" d="M8.851,89.268c0.373-0.523,1.634-0.634,2.475-0.386c2.382,0.704,4.557,2.656,6.997,3.891
					c7.59,3.835,17.486,7.783,25.839,12.686c7.639,4.481,13.759,9.126,16.917,11.413c2.308,1.597,11.141,8.61,9.217,9.386
					c-1.866,1-16.487-8.507-22.923-11.694c-8.599-4.262-19.126-10.346-28.243-12.26c-2.174-0.455-4.798-2.114-5.395-4.133
					C12.89,97.323,6.564,92.494,8.851,89.268z"/>
				<path fill="#9BD5C4" d="M20.522,106.23c8.23,0.369,15.257,5.59,23.248,8.848c3.371,1.376,10.681,4.351,9.371,5.439
					c-0.91,0.715-7.93-1.573-17.347-1.886c-3.977-0.134-7.638-0.111-10.562-2.212c-1.655-1.192-5.625-5.427-6.155-7.703
					C18.731,107.241,19.519,106.185,20.522,106.23z"/>
				<path fill="#9BD5C4" d="M34.788,140.952c-1.976-0.404-3.619-2.5-1.175-3.889c2.441-1.384,5.511-1.059,7.559-0.993
					c5.462,0.174,9.09,0.291,14.922,0.602c1.36,0.074,4.55,0.564,6.339,0.907c2.139,0.411,14.333,2.393,14.33,3.938
					c-0.002,0.957-6.5-1.121-12.272-0.97c-2.79,0.072-5.498,0.108-7.259,0.242c-0.841,0.064-6.44-0.158-8.495,0.037l-4.776,0.259
					C40.62,141.185,37.696,141.543,34.788,140.952z"/>
			</g>
			<path fill="#9BD5C4" d="M183.608,133.142c-0.328-0.569-30,0.154-43.94-1.829c-4.723-0.675-8.498-4.998-13.165-6.688
				c-5.622-2.036-15.126-2.344-21.126,1.398c-3.834,2.394-7.52,6.363-12.471,6.1c-8.362-0.444-12.475-8.197-18.042-15.131
				c-2.832-3.528-6.3-7.045-9.386-10.3c-3.124-3.293-6.552-6.885-9.816-9.859c-6.688-6.096-12.626-12.72-19.423-18.89
				c-3.76-3.416-8.556-7.277-13.419-10.124c-4.597-2.688-10.514-6.421-15.231-7.357c-1.556-0.31-3.127-0.651-4.962-0.498
				c-0.045,0.015-0.367,0.064-0.774,0.31c-3.34,3.131-1.773,8.67,1.594,10.49c4.86,2.627,10.183,4.133,14.864,7.178
				c18.509,12.036,22.985,15.432,33.692,23.268c15.753,12.733,31.014,28.555,29.95,29.732c-1.241,1.164-8.105-1.487-12.37-2.951
				c-2.943-1.01-6.042-1.89-9.101-2.867c-3.512-1.12-7.138-2.76-10.752-3.219c-5.782-0.734-14.408-1.832-19.911-1.318
				c-1.367,0.129-3.858,2.572-3.361,4.061c0.668,2.011,4.62,1.917,6.524,2.061c2.652,0.199,5.009,0.409,7.248,0.587
				c10.141,0.806,18.846,2.089,27.729,4.468c6.895,1.846,14.221,5.327,21.118,7.537c0.867,0.281,5.407,1.697,4.617,2.446
				c-0.704,0.665-4.744-0.392-4.71-0.382c-2.084-0.713-3.46-1.394-5.324-2.081c-6.558-2.416-15.677-6.131-23.139-7.376
				c-2.512-0.418-6.169-1.175-8.168-1.306c-5.191-0.343-13.834-2.228-19.76-1.807c-2.367,0.171-5.063,2.3-3.87,4.732
				c0.572,1.163,2.11,0.65,3.673,0.431c5.071-0.713,10.678,0.264,16.838,0.733c11.262,0.855,18.044,1.576,26.714,4.76
				c2.23,0.821,5.478,2.025,1.722,3.245c-4.111,1.329-9.066-1.145-14.082-0.857c-4.58,0.259-7.443,0.637-11.689,0.299
				c0.179,0.014-0.598,0.016-1.608,0.006l-4.926,0.389c-1.477,0.011-3.378,0.037-5.384,0.169c-8.142,0.546,1.178,5.518,3.712,5.935
				c4.944,0.81,10.089-0.687,14.984-1.863c4.455-1.071,6.762-1.087,9.147-1.096c3.742-0.013,7.794-0.514,10.793-0.822
				c-0.101,0.01,3.782-0.636,3.646,0.188c-0.136,0.822-1.463,1.057-2.547,1.395c-1.635,0.506-4.604,0.588-6.918,0.833
				c-3.479,0.363-6.415,0.275-9.351,0.436c-3.199,0.173-5.686,1.824-9.057,2.636c-2.533,0.609-7.821,1.186-7.077,3.951
				c1.026,3.819,6.832,3.599,10.651,2.028c4.221-1.731,12.229-3.696,17.669-5.611c3.191-1.123,5.509-2.339,5.929-2.453
				c1.259-0.271,0.863,0.55,0.19,1.007c-1.273,0.871-4.812,2.765-7.854,3.912c-4.798,1.809-10.015,2.469-15.049,4.835
				c-1.277,0.603-5.236,2.463-5.341,3.206c-0.334,2.369,2.702,3.77,4.334,3.267c3.132-0.961,6.667-4.163,10.275-5.809
				c1.905-0.871,2.939-1.355,3.846-1.845c0.026-0.015,4.764-2.224,3.96-0.814c-0.328,0.572-2.265,1.758-3.011,2.191
				c-3.269,1.901-8.06,5.59-11.352,9.583c-1.417,1.715-2.847,3.803-3.867,6.154c-0.939,2.174-1.653,4.693-1.975,6.741
				c-1.536,9.77,2.488,21.354,2.027,31.941c-0.064,1.482-0.729,4.638,0.09,5.64c1.38,1.683,2.958-0.986,3.744-2.045
				c1.76-2.372,3.688-2.534,2.528,0.668c-1.029,2.838-1.802,8.385-1.518,11.707c0.186,2.15,2.333,8.71,4.325,8.172
				c1.587-0.428,1.051-3.274,1.339-5.054c0.373-2.309,1.559-5.627,2.92-8.047c0.326-0.578,3.75-6.654,4.677-6.04
				c1.032,0.681-0.757,4.106-1.064,4.961c-2.094,5.82-4.069,12.942-3.748,19.514c0.077,1.615,1.991,6.919,3.716,6.848
				c1.977-0.08,1.247-2.041,2.227-2.903c1-0.879,2.167,3.559,2.923,4.516c1.535,1.95,4.437,2.008,5.333,1.702
				c0.544-0.184,2.766-1.158,4.467-3.517c2.555-3.547-0.026-11.849-0.396-15.953c-0.722-8.014-2.583-23.16-0.126-22.786
				c0.888,0.153,2.039,22.803,5.393,34.16c0.297,1.008,0.755,2.167,1.169,2.977c0.954,1.851,4.008,5.647,5.55,6.375
				c5.785,2.718,4.337-6.59,3.595-9.655c-0.866-3.576-1.448-7.822-2.887-12.038c-1.626-4.759-4.42-9.285-5.654-13.852
				c-1.708-6.327-5.309-16.504-3.244-16.665c0.9-0.074,1.688,2.63,2.298,5.238c1.109,4.748,2.065,10.299,4.18,14.612
				c3.349,6.831,5.387,13.912,9.097,20.794c3.167,5.873,16.612,6.006,12.589-2.616c-1.472-3.156-5.104-9.789-7.875-13.506
				c-2.513-3.38-4.166-6.906-6.43-10.87c-2.159-3.786-4.439-8.361-5.866-11.315c-1.387-2.869-2.027-4.509-1.362-4.908
				c0.955-0.569,2.966,2.917,3.419,3.731c2.666,4.813,5.037,10.753,7.624,15.183c1.868,3.559,3.795,6.164,5.371,8.551
				c0.814,1.233,1.794,2.654,2.758,3.98c1.784,2.456,6.139,10.141,7.96,9.846c3.612-0.586,3.15-8.265,1.389-10.739
				c-2.708-3.804-6.301-7.318-9.112-10.521c-1.402-1.601-2.891-3.586-4.144-5.187c-2.555-3.272-7.385-10.572-6.729-11.133
				c0.961-0.47,6.261,5.613,8.664,9.408c3.882,6.129,8.91,12.186,14.735,14.425c4.907,1.885,6.489-2.079,4.073-6.909
				c-2.1-4.201-6.296-8.58-10.021-12.502c-5.099-5.356-12.623-12.04-19.263-16.253c-1.718-4.294,3.028-6.957,5.066-8.934
				c4.364-4.225,5.131-10.736,9.104-15.063c1.511-1.645,3.827-2.651,5.382-3.983c3.959-3.389,4.184-12.595,7.383-17.842
				c1.447-2.376,4.757-6.696,7.827-8.04c4.05-1.774,8.924-1.37,12.737-1.28c5.27,0.125,11.337,0.224,16.84,0.016
				c3.973-0.15,9.831-0.573,11.33-0.966C183.972,133.975,183.67,133.326,183.608,133.142z M100.112,140.217
				c-0.816-1.101-5.212-4.039-7.057-4.632c-1.535-0.493-0.345-0.832,0.216-0.662c1.658,0.503,9.784,2.488,9.41,5.864
				C102.628,141.288,100.929,141.318,100.112,140.217z M126.873,134.407c-2.084-0.193-2.893-0.249-2.805-1.19
				c0.086-0.941,0.792-2.686,2.875-2.496c2.083,0.193,4.374,1.858,4.166,2.331C130.781,133.788,128.955,134.597,126.873,134.407z"/>
		</g>
	</g>
</g>
</svg>
